<mxfile host="app.diagrams.net" modified="2022-02-24T13:40:17.893Z" agent="5.0 (Windows NT 10.0; Win64; x64) AppleWebKit/537.36 (KHTML, like Gecko) Chrome/98.0.4758.102 Safari/537.36" etag="zBzuTdB3N6l2ZfU9E6Ku" version="16.6.1" type="github">
  <diagram id="ZrR5u5R8Vn6Y5X-_UKB4" name="Page-1">
    <mxGraphModel dx="-677" dy="808" grid="1" gridSize="10" guides="1" tooltips="1" connect="1" arrows="1" fold="1" page="0" pageScale="1" pageWidth="850" pageHeight="1100" math="0" shadow="0">
      <root>
        <mxCell id="0" />
        <mxCell id="1" parent="0" />
        <mxCell id="gh2yj9uuSnO03qctTTrY-3" value="Text" style="text;html=1;strokeColor=none;fillColor=none;align=center;verticalAlign=middle;whiteSpace=wrap;rounded=0;hachureGap=4;" vertex="1" parent="1">
          <mxGeometry x="2770" y="280" width="60" height="30" as="geometry" />
        </mxCell>
        <mxCell id="gh2yj9uuSnO03qctTTrY-4" value="Text" style="text;html=1;strokeColor=none;fillColor=none;align=center;verticalAlign=middle;whiteSpace=wrap;rounded=0;hachureGap=4;" vertex="1" parent="1">
          <mxGeometry x="2770" y="280" width="60" height="30" as="geometry" />
        </mxCell>
        <mxCell id="gh2yj9uuSnO03qctTTrY-8" value="" style="shape=parallelogram;perimeter=parallelogramPerimeter;whiteSpace=wrap;html=1;fixedSize=1;hachureGap=4;strokeWidth=1;size=50;" vertex="1" parent="1">
          <mxGeometry x="2015" y="-380" width="200" height="40" as="geometry" />
        </mxCell>
        <mxCell id="gh2yj9uuSnO03qctTTrY-9" value="Liste" style="text;html=1;strokeColor=none;fillColor=none;align=center;verticalAlign=middle;whiteSpace=wrap;rounded=0;hachureGap=4;" vertex="1" parent="1">
          <mxGeometry x="2085" y="-375" width="60" height="30" as="geometry" />
        </mxCell>
        <mxCell id="gh2yj9uuSnO03qctTTrY-10" value="" style="edgeStyle=none;orthogonalLoop=1;jettySize=auto;html=1;rounded=0;endArrow=open;startSize=14;endSize=14;sourcePerimeterSpacing=8;targetPerimeterSpacing=8;curved=1;" edge="1" parent="1">
          <mxGeometry width="120" relative="1" as="geometry">
            <mxPoint x="2108" y="-290" as="sourcePoint" />
            <mxPoint x="2108" y="-340" as="targetPoint" />
            <Array as="points" />
          </mxGeometry>
        </mxCell>
        <mxCell id="gh2yj9uuSnO03qctTTrY-11" value="" style="rounded=0;whiteSpace=wrap;html=1;hachureGap=4;strokeWidth=1;dashed=1;" vertex="1" parent="1">
          <mxGeometry x="2030" y="-290" width="140" height="50" as="geometry" />
        </mxCell>
        <mxCell id="gh2yj9uuSnO03qctTTrY-12" value="Lenkeliste" style="text;html=1;strokeColor=none;fillColor=none;align=center;verticalAlign=middle;whiteSpace=wrap;rounded=0;dashed=1;hachureGap=4;" vertex="1" parent="1">
          <mxGeometry x="2070" y="-280" width="60" height="30" as="geometry" />
        </mxCell>
        <mxCell id="gh2yj9uuSnO03qctTTrY-13" value="" style="edgeStyle=none;orthogonalLoop=1;jettySize=auto;html=1;rounded=0;endArrow=open;startSize=14;endSize=14;sourcePerimeterSpacing=8;targetPerimeterSpacing=8;curved=1;entryX=0.572;entryY=0.963;entryDx=0;entryDy=0;entryPerimeter=0;" edge="1" parent="1" target="gh2yj9uuSnO03qctTTrY-11">
          <mxGeometry width="120" relative="1" as="geometry">
            <mxPoint x="2110" y="-200" as="sourcePoint" />
            <mxPoint x="2170" y="-200" as="targetPoint" />
            <Array as="points">
              <mxPoint x="2110" y="-230" />
            </Array>
          </mxGeometry>
        </mxCell>
        <mxCell id="gh2yj9uuSnO03qctTTrY-15" value="" style="endArrow=none;html=1;rounded=0;startSize=14;endSize=14;sourcePerimeterSpacing=8;targetPerimeterSpacing=8;curved=1;" edge="1" parent="1">
          <mxGeometry width="50" height="50" relative="1" as="geometry">
            <mxPoint x="1950" y="-200" as="sourcePoint" />
            <mxPoint x="2110" y="-200" as="targetPoint" />
          </mxGeometry>
        </mxCell>
        <mxCell id="gh2yj9uuSnO03qctTTrY-16" value="" style="endArrow=none;html=1;rounded=0;startSize=14;endSize=14;sourcePerimeterSpacing=8;targetPerimeterSpacing=8;curved=1;" edge="1" parent="1">
          <mxGeometry width="50" height="50" relative="1" as="geometry">
            <mxPoint x="1950" y="-150" as="sourcePoint" />
            <mxPoint x="1950" y="-200" as="targetPoint" />
          </mxGeometry>
        </mxCell>
        <mxCell id="gh2yj9uuSnO03qctTTrY-17" value="" style="rounded=0;whiteSpace=wrap;html=1;hachureGap=4;strokeWidth=1;" vertex="1" parent="1">
          <mxGeometry x="1870" y="-150" width="120" height="40" as="geometry" />
        </mxCell>
        <mxCell id="gh2yj9uuSnO03qctTTrY-18" value="Stabel" style="text;html=1;strokeColor=none;fillColor=none;align=center;verticalAlign=middle;whiteSpace=wrap;rounded=0;hachureGap=4;" vertex="1" parent="1">
          <mxGeometry x="1900" y="-145" width="60" height="30" as="geometry" />
        </mxCell>
        <mxCell id="gh2yj9uuSnO03qctTTrY-19" value="" style="endArrow=none;html=1;rounded=0;startSize=14;endSize=14;sourcePerimeterSpacing=8;targetPerimeterSpacing=8;curved=1;" edge="1" parent="1">
          <mxGeometry width="50" height="50" relative="1" as="geometry">
            <mxPoint x="2040" y="-150" as="sourcePoint" />
            <mxPoint x="2040" y="-200" as="targetPoint" />
          </mxGeometry>
        </mxCell>
        <mxCell id="gh2yj9uuSnO03qctTTrY-20" value="" style="rounded=0;whiteSpace=wrap;html=1;hachureGap=4;strokeWidth=1;" vertex="1" parent="1">
          <mxGeometry x="2010" y="-150" width="120" height="40" as="geometry" />
        </mxCell>
        <mxCell id="gh2yj9uuSnO03qctTTrY-21" value="Koe" style="text;html=1;strokeColor=none;fillColor=none;align=center;verticalAlign=middle;whiteSpace=wrap;rounded=0;hachureGap=4;" vertex="1" parent="1">
          <mxGeometry x="2040" y="-145" width="60" height="30" as="geometry" />
        </mxCell>
        <mxCell id="gh2yj9uuSnO03qctTTrY-22" value="" style="endArrow=none;html=1;rounded=0;startSize=14;endSize=14;sourcePerimeterSpacing=8;targetPerimeterSpacing=8;curved=1;" edge="1" parent="1">
          <mxGeometry width="50" height="50" relative="1" as="geometry">
            <mxPoint x="2110" y="-200" as="sourcePoint" />
            <mxPoint x="2250" y="-200" as="targetPoint" />
            <Array as="points">
              <mxPoint x="2170" y="-200" />
            </Array>
          </mxGeometry>
        </mxCell>
        <mxCell id="gh2yj9uuSnO03qctTTrY-24" value="" style="rounded=0;whiteSpace=wrap;html=1;hachureGap=4;strokeWidth=1;" vertex="1" parent="1">
          <mxGeometry x="2160" y="-150" width="120" height="40" as="geometry" />
        </mxCell>
        <mxCell id="gh2yj9uuSnO03qctTTrY-25" value="" style="endArrow=none;html=1;rounded=0;startSize=14;endSize=14;sourcePerimeterSpacing=8;targetPerimeterSpacing=8;curved=1;" edge="1" parent="1">
          <mxGeometry width="50" height="50" relative="1" as="geometry">
            <mxPoint x="2190" y="-150" as="sourcePoint" />
            <mxPoint x="2190" y="-200" as="targetPoint" />
          </mxGeometry>
        </mxCell>
        <mxCell id="gh2yj9uuSnO03qctTTrY-26" value="IndeksertListe" style="text;html=1;strokeColor=none;fillColor=none;align=center;verticalAlign=middle;whiteSpace=wrap;rounded=0;hachureGap=4;" vertex="1" parent="1">
          <mxGeometry x="2170" y="-145" width="100" height="30" as="geometry" />
        </mxCell>
      </root>
    </mxGraphModel>
  </diagram>
</mxfile>
